<?xml version="1.0" standalone="no"?>
<!DOCTYPE svg PUBLIC "-//W3C//DTD SVG 20010904//EN"
 "http://www.w3.org/TR/2001/REC-SVG-20010904/DTD/svg10.dtd">
<svg version="1.0" xmlns="http://www.w3.org/2000/svg"
 width="1280.000000pt" height="1280.000000pt" viewBox="0 0 1280.000000 1280.000000"
 preserveAspectRatio="xMidYMid meet">
<metadata>
Created by potrace 1.15, written by Peter Selinger 2001-2017
</metadata>
<g transform="translate(0.000000,1280.000000) scale(0.100000,-0.100000)"
fill="#000000" stroke="none">
<path d="M6642 12380 c-336 -88 -507 -462 -356 -778 90 -186 285 -312 486
-312 274 0 497 190 544 464 41 234 -76 470 -287 581 -123 64 -254 80 -387 45z"/>
<path d="M7712 11112 c-46 -24 -109 -89 -135 -137 -20 -36 -22 -55 -22 -190 0
-142 2 -153 25 -200 21 -40 42 -60 110 -106 140 -93 174 -131 203 -225 54
-170 93 -455 83 -594 -4 -41 -13 -174 -21 -295 -18 -267 -33 -388 -52 -436 -8
-21 -32 -48 -56 -66 -33 -23 -67 -71 -160 -225 -64 -108 -129 -227 -143 -264
-14 -38 -33 -77 -42 -88 -9 -10 -59 -39 -111 -63 -80 -39 -107 -59 -186 -137
-88 -87 -168 -194 -214 -283 -11 -23 -21 -47 -21 -52 0 -6 -9 -34 -20 -64 -22
-59 -47 -77 -105 -77 -41 0 -55 20 -55 77 0 61 9 81 40 88 41 9 51 26 57 94 8
86 -2 121 -52 186 -40 51 -45 63 -45 110 0 68 -7 85 -34 85 -18 0 -22 6 -22
33 0 17 -8 44 -18 60 -26 39 -62 45 -107 19 -50 -29 -69 -28 -135 10 -49 27
-66 31 -128 31 -116 0 -139 -11 -257 -122 -80 -75 -111 -112 -128 -150 -12
-28 -25 -51 -29 -51 -19 0 -113 63 -130 87 -26 37 -29 51 -42 173 -13 120 -39
187 -113 287 -37 50 -54 64 -89 74 -52 16 -60 25 -53 63 7 39 24 56 115 121
41 29 127 99 190 155 176 156 237 196 355 231 63 19 150 58 235 104 155 84
192 100 246 109 45 8 61 -5 108 -87 48 -85 100 -96 142 -31 19 28 16 46 -22
146 l-19 48 34 32 c53 53 103 137 109 184 4 34 -2 55 -33 116 -51 101 -116
197 -136 203 -10 3 -26 1 -37 -6 -13 -8 -30 -9 -58 -3 -42 10 -57 30 -74 101
-13 51 -48 67 -80 38 -24 -22 -25 -45 -4 -126 20 -77 12 -110 -46 -189 -22
-30 -65 -92 -97 -138 -88 -130 -129 -151 -430 -211 -321 -65 -539 -147 -740
-280 -187 -124 -263 -220 -263 -330 0 -65 37 -297 75 -468 53 -238 106 -373
289 -738 l170 -340 -3 -172 c-3 -202 1 -216 94 -328 96 -118 103 -136 189
-520 101 -453 102 -543 10 -890 -19 -71 -50 -174 -70 -229 -19 -54 -57 -179
-84 -277 -64 -231 -84 -270 -156 -310 -84 -48 -87 -56 -79 -202 9 -156 2 -184
-111 -418 -75 -155 -104 -231 -159 -424 -28 -98 -39 -245 -26 -350 12 -99 7
-125 -24 -125 -7 0 -28 -17 -47 -39 -48 -52 -63 -117 -54 -236 l7 -92 -66 -24
c-72 -25 -92 -44 -178 -163 -62 -85 -94 -163 -123 -305 -17 -83 -34 -133 -62
-185 -22 -39 -58 -116 -82 -171 -61 -145 -126 -250 -188 -303 -57 -50 -60 -57
-107 -252 -31 -129 -31 -191 -4 -284 28 -94 53 -143 98 -189 50 -53 103 -79
153 -75 70 5 86 43 108 264 13 124 27 162 99 265 63 89 80 144 88 279 3 61 12
119 21 138 9 20 106 117 238 238 134 123 234 222 249 249 31 51 54 70 203 160
62 37 132 85 157 107 94 83 384 465 495 653 79 134 209 331 231 351 15 13 19
14 20 3 0 -8 5 -50 10 -94 24 -183 34 -145 -79 -305 -39 -56 -47 -89 -29 -114
12 -16 31 -20 113 -25 l99 -6 -3 -72 c-3 -63 28 -305 44 -348 10 -25 -47 -70
-136 -105 -245 -97 -341 -170 -518 -398 -114 -147 -302 -322 -392 -365 -32
-15 -130 -46 -217 -68 -213 -54 -269 -75 -319 -125 -33 -33 -44 -52 -49 -88
-10 -65 15 -109 101 -173 82 -62 104 -87 104 -119 0 -43 -36 -130 -94 -225
-57 -93 -66 -131 -45 -170 8 -16 4 -50 -17 -144 -32 -145 -28 -175 27 -175 35
0 166 65 219 109 52 42 78 99 170 357 l82 232 78 84 c82 89 174 156 365 270
321 191 412 238 821 424 359 163 463 215 495 251 25 27 27 35 32 163 6 160 12
179 117 424 140 325 156 410 144 741 -5 121 -9 402 -9 625 -1 388 -12 622 -45
910 -5 47 -10 88 -10 92 0 4 -10 16 -21 27 -22 20 -22 22 -10 158 10 119 50
497 66 633 21 178 35 346 45 540 16 331 22 372 71 486 47 110 47 114 40 419
l-3 159 33 29 c212 184 363 352 486 538 74 114 100 178 148 371 46 183 59 210
132 284 90 91 97 117 90 321 -3 102 -15 240 -31 353 -25 168 -34 207 -105 420
-94 279 -123 343 -201 439 -70 86 -77 104 -56 136 9 13 16 34 16 45 0 32 -34
91 -85 151 -73 85 -75 93 -31 138 58 60 97 211 62 240 -18 15 -39 7 -113 -46
-34 -23 -64 -43 -67 -43 -2 0 7 34 21 75 37 112 15 137 -61 68 l-40 -37 -13
43 c-21 74 -36 83 -91 53z"/>
</g>
</svg>
